<svg id="Cumulativerse" xmlns="http://www.w3.org/2000/svg" viewBox="0 0 500 500">
    <defs>
        <style>
            .cls-1 {
                fill: #e5e5e5;
            }

            .cls-1,
            .cls-3,
            .cls-4,
            .cls-5,
            .cls-6,
            .cls-7 {
                stroke: #343838;
            }

            .cls-1,
            .cls-2,
            .cls-3,
            .cls-4,
            .cls-5 {
                stroke-miterlimit: 10;
            }

            .cls-2 {
                fill: none;
                stroke: #4c5151;
            }

            .cls-3,
            .cls-6 {
                fill: #82a39d;
            }

            .cls-4,
            .cls-7 {
                fill: #2c4c47;
            }

            .cls-5 {
                fill: #517570;
            }

            .cls-6 {
                stroke-miterlimit: 10.0004;
            }

            .cls-7 {
                stroke-miterlimit: 10;
            }
        </style>
    </defs>
    <circle id="Background" class="cls-1" cx="250" cy="250" r="249.5" />
    <g id="Parents">
        <line id="Tier3-Parent2-2" class="cls-2" x1="50.2" y1="142.7" x2="75.1" y2="227.5" />
        <line id="Tier3-Parent2" class="cls-2" x1="50.2" y1="142.7" x2="110.2" y2="142.7" />
        <line id="Tier3-Parent1-2" class="cls-2" x1="450.8" y1="142.7" x2="425.9" y2="227.5" />
        <line id="Tier3-Parent1" class="cls-2" x1="450.8" y1="142.7" x2="390.8" y2="142.7" />
        <line id="Tier2-Parent16" class="cls-2" x1="227.5" y1="425.9" x2="250.5" y2="370.5" />
        <line id="Tier2-Parent15-2" class="cls-2" x1="142.7" y1="390.8" x2="250.5" y2="370.5" />
        <line id="Tier2-Parent15" class="cls-2" x1="165.6" y1="335.4" x2="142.7" y2="390.8" />
        <line id="Tier2-Parent14" class="cls-2" x1="165.6" y1="335.4" x2="110.2" y2="358.3" />
        <line id="Tier2-Parent13" class="cls-2" x1="130.5" y1="250.5" x2="75.1" y2="273.5" />
        <line id="Tier2-Parent12" class="cls-2" x1="130.5" y1="250.5" x2="75.1" y2="227.5" />
        <line id="Tier2-Parent11" class="cls-2" x1="165.7" y1="165.6" x2="110.2" y2="142.7" />
        <line id="Tier2-Parent10" class="cls-2" x1="165.6" y1="165.6" x2="142.7" y2="110.2" />
        <line id="Tier2-Parent9" class="cls-2" x1="250.5" y1="130.5" x2="227.5" y2="75.1" />
        <line id="Tier2-Parent8" class="cls-2" x1="250.5" y1="130.5" x2="273.5" y2="75.1" />
        <line id="Tier2-Parent7" class="cls-2" x1="335.4" y1="165.6" x2="358.3" y2="110.2" />
        <line id="Tier2-Parent6" class="cls-2" x1="335.4" y1="165.6" x2="390.8" y2="142.7" />
        <line id="Tier2-Parent5" class="cls-2" x1="370.5" y1="250.5" x2="425.9" y2="227.5" />
        <line id="Tier2-Parent4" class="cls-2" x1="370.5" y1="250.5" x2="425.9" y2="273.5" />
        <line id="Tier2-Parent3" class="cls-2" x1="335.4" y1="335.4" x2="390.8" y2="358.3" />
        <line id="Tier2-Parent2-2" class="cls-2" x1="358.3" y1="390.8" x2="250.5" y2="370.5" />
        <line id="Tier2-Parent2" class="cls-2" x1="335.4" y1="335.4" x2="358.3" y2="390.8" />
        <line id="Tier2-Parent1" class="cls-2" x1="273.5" y1="425.9" x2="250.5" y2="370.5" />
        <line id="Tier1-Parent8" class="cls-2" x1="165.6" y1="335.4" x2="250.5" y2="250.5" />
        <line id="Tier1-Parent7" class="cls-2" x1="130.5" y1="250.5" x2="250.5" y2="250.5" />
        <line id="Tier1-Parent6" class="cls-2" x1="165.6" y1="165.6" x2="250.5" y2="250.5" />
        <line id="Tier1-Parent5" class="cls-2" x1="250.5" y1="250.5" x2="250.5" y2="130.5" />
        <line id="Tier1-Parent4" class="cls-2" x1="335.4" y1="165.6" x2="250.5" y2="250.5" />
        <line id="Tier1-Parent3" class="cls-2" x1="370.5" y1="250.5" x2="250.5" y2="250.5" />
        <line id="Tier1-Parent2" class="cls-2" x1="335.4" y1="335.4" x2="250.5" y2="250.5" />
        <line id="Tier1-Parent1" class="cls-2" x1="250.5" y1="370.5" x2="250.5" y2="250.5" />
    </g>
    <g id="Heapverses">
        <circle id="Tier3-Heapverse2" class="cls-3" cx="49.4" cy="143.1" r="15" />
        <circle id="Tier3-Heapverse1" class="cls-3" cx="450.6" cy="142.4" r="15" />
        <circle id="Tier2-Heapverse16" class="cls-4" cx="227.2" cy="425.6" r="15" />
        <circle id="Tier2-Heapverse15" class="cls-3" cx="142.4" cy="390.5" r="15" />
        <circle id="Tier2-Heapverse14" class="cls-5" cx="109.9" cy="358" r="15" />
        <circle id="Tier2-Heapverse13" class="cls-4" cx="74.8" cy="273.2" r="15" />
        <circle id="Tier2-Heapverse12" class="cls-4" cx="75.4" cy="226.4" r="15" />
        <circle id="Tier2-Heapverse11" class="cls-5" cx="109.9" cy="142.4" r="15" />
        <circle id="Tier2-Heapverse10" class="cls-3" cx="142.4" cy="109.9" r="15" />
        <circle id="Tier2-Heapverse9" class="cls-4" cx="227.2" cy="74.8" r="15" />
        <circle id="Tier2-Heapverse8" class="cls-4" cx="273.2" cy="74.4" r="15" />
        <circle id="Tier2-Heapverse7" class="cls-3" cx="358" cy="109.9" r="15" />
        <circle id="Tier2-Heapverse6" class="cls-5" cx="390.5" cy="142.4" r="15" />
        <circle id="Tier2-Heapverse5" class="cls-4" cx="425.6" cy="227.2" r="15" />
        <circle id="Tier2-Heapverse4" class="cls-4" cx="425.6" cy="273.2" r="15" />
        <circle id="Tier2-Heapverse3" class="cls-5" cx="390.5" cy="358" r="15" />
        <circle id="Tier2-Heapverse2" class="cls-3" cx="356.7" cy="390.5" r="15" />
        <circle id="Tier2-Heapverse1" class="cls-4" cx="273.2" cy="425.6" r="15" />
        <circle id="Tier1-Heapverse8" class="cls-4" cx="165.3" cy="335.1" r="30" />
        <circle id="Tier1-Heapverse7" class="cls-5" cx="130.2" cy="250.2" r="30" />
        <circle id="Tier1-Heapverse6" class="cls-4" cx="165.3" cy="165.3" r="30" />
        <circle id="Tier1-Heapverse5" class="cls-3" cx="250.2" cy="130.2" r="30" />
        <circle id="Tier1-Heapverse4" class="cls-4" cx="335.1" cy="165.3" r="30" />
        <circle id="Tier1-Heapverse3" class="cls-5" cx="370.2" cy="250.2" r="30" />
        <circle id="Tier1-Heapverse2" class="cls-4" cx="335.1" cy="335.1" r="30" />
        <circle id="Tier1-Heapverse1" class="cls-3" cx="250.2" cy="370.2" r="30" />
        <circle id="Tier0-Heapverse3" class="cls-6" cx="232.5" cy="240.2" r="30" />
        <circle id="Tier0-Heapverse2" class="cls-3" cx="267.5" cy="240.2" r="30" />
        <circle id="Tier0-Heapverse1" class="cls-5" cx="250.2" cy="270.2" r="30" />
    </g>
    <g id="Heaps">
        <circle id="Tier3-Heap2" class="cls-3" cx="49.4" cy="143.1" r="10" />
        <circle id="Tier3-Heap1" class="cls-3" cx="450.6" cy="142.4" r="10" />
        <circle id="Tier2-Heap16" class="cls-5" cx="227.2" cy="425.6" r="10" />
        <circle id="Tier2-Heap15" class="cls-3" cx="142.4" cy="390.2" r="10" />
        <circle id="Tier2-Heap14" class="cls-3" cx="109.9" cy="358" r="10" />
        <circle id="Tier2-Heap13" class="cls-4" cx="74.8" cy="273.2" r="10" />
        <circle id="Tier2-Heap12" class="cls-4" cx="75.4" cy="226.4" r="10" />
        <circle id="Tier2-Heap11" class="cls-5" cx="109.9" cy="142.4" r="10" />
        <circle id="Tier2-Heap10" class="cls-5" cx="142.4" cy="110.2" r="10" />
        <circle id="Tier2-Heap9" class="cls-5" cx="227.2" cy="74.8" r="10" />
        <circle id="Tier2-Heap8" class="cls-5" cx="273.2" cy="74.8" r="10" />
        <circle id="Tier2-Heap7" class="cls-5" cx="358" cy="110.2" r="10" />
        <circle id="Tier2-Heap6" class="cls-5" cx="390.5" cy="142.4" r="10" />
        <circle id="Tier2-Heap5" class="cls-4" cx="425.6" cy="227.2" r="10" />
        <circle id="Tier2-Heap4" class="cls-4" cx="425.6" cy="273.2" r="10" />
        <circle id="Tier2-Heap3" class="cls-3" cx="390.5" cy="358" r="10" />
        <circle id="Tier2-Heap2" class="cls-3" cx="356.7" cy="390.5" r="10" />
        <circle id="Tier2-Heap1" class="cls-5" cx="273.2" cy="425.6" r="10" />
        <circle id="Tier1-Heap8" class="cls-3" cx="165.3" cy="335.1" r="20" />
        <circle id="Tier1-Heap7" class="cls-4" cx="130.2" cy="250.2" r="20" />
        <circle id="Tier1-Heap6" class="cls-3" cx="165.3" cy="165.3" r="20" />
        <circle id="Tier1-Heap5" class="cls-4" cx="250.2" cy="130.2" r="20" />
        <circle id="Tier1-Heap4" class="cls-3" cx="335.1" cy="165.3" r="20" />
        <circle id="Tier1-Heap3" class="cls-4" cx="370.2" cy="250.2" r="20" />
        <circle id="Tier1-Heap2" class="cls-3" cx="335.1" cy="335.1" r="20" />
        <circle id="Tier1-Heap1" class="cls-4" cx="250.2" cy="370.2" r="20" />
        <circle id="Tier0-Heap3" class="cls-7" cx="232.5" cy="240.2" r="20" />
        <circle id="Tier0-Heap2" class="cls-4" cx="267.5" cy="240.2" r="20" />
        <circle id="Tier0-Heap1" class="cls-4" cx="250.2" cy="270.2" r="20" />
    </g>
</svg>